<?xml version="1.0" standalone="no"?>
<!DOCTYPE svg PUBLIC "-//W3C//DTD SVG 20010904//EN"
 "http://www.w3.org/TR/2001/REC-SVG-20010904/DTD/svg10.dtd">
<svg version="1.0" xmlns="http://www.w3.org/2000/svg"
 width="700.000000pt" height="700.000000pt" viewBox="0 0 700.000000 700.000000"
 preserveAspectRatio="xMidYMid meet">
<metadata>
Created by potrace 1.11, written by Peter Selinger 2001-2013
</metadata>
<g transform="translate(0.000000,700.000000) scale(0.100000,-0.100000)"
fill="#000000" stroke="none">
<path d="M2134 6984 c-41 -21 -97 -116 -130 -218 -38 -122 -33 -271 13 -388
l15 -37 -52 -63 c-106 -130 -162 -295 -155 -458 4 -94 8 -119 31 -188 34 -100
85 -182 165 -267 l38 -40 -27 -45 c-98 -160 -139 -346 -129 -584 4 -72 8 -146
11 -164 4 -25 1 -34 -12 -39 -354 -119 -602 -306 -747 -563 -41 -72 -99 -237
-111 -315 -16 -100 -9 -326 11 -408 5 -18 3 -27 -4 -27 -20 0 -120 -68 -173
-118 -53 -49 -113 -132 -140 -192 -57 -128 -47 -308 26 -465 8 -16 24 -55 36
-85 12 -30 28 -68 35 -85 7 -16 79 -187 158 -380 80 -192 200 -483 267 -645
67 -162 128 -308 135 -325 7 -16 41 -97 75 -180 34 -82 80 -186 102 -230 96
-193 222 -338 355 -408 134 -70 70 -67 1608 -64 l1380 2 65 23 c208 71 357
236 498 552 11 25 52 124 92 220 39 96 78 189 85 205 7 17 45 109 85 205 39
96 80 194 91 217 10 24 19 45 19 48 0 4 65 161 95 230 7 17 23 53 34 81 11 28
28 71 39 95 11 24 25 58 32 74 6 17 58 143 115 280 132 321 135 333 131 459
-4 111 -22 168 -83 263 -42 64 -135 151 -208 195 -49 29 -54 35 -48 58 9 33 9
270 0 342 -18 140 -88 348 -162 478 -124 218 -326 425 -536 547 l-77 44 29 55
c66 123 89 222 85 359 -4 117 -33 215 -97 325 -16 28 -93 125 -121 153 -43 43
-151 117 -212 146 -61 29 -66 33 -66 63 -3 189 -105 421 -278 627 -63 75 -185
196 -252 250 -25 20 -47 39 -50 42 -3 3 -41 32 -85 66 -133 100 -281 193 -368
231 -71 30 -93 35 -163 36 -77 1 -85 -1 -125 -30 -79 -57 -112 -163 -82 -270
20 -72 24 -195 8 -248 -36 -118 -146 -288 -228 -350 -39 -30 -47 -32 -47 -11
0 25 -41 107 -86 172 -131 186 -348 289 -586 279 -51 -3 -115 -11 -141 -20
-60 -18 -62 -14 -62 100 0 72 4 87 35 149 19 38 36 73 36 77 1 4 3 11 4 16 5
17 -3 69 -15 93 -30 57 -122 83 -181 53z"/>
</g>
</svg>
